<svg xmlns="http://www.w3.org/2000/svg" width="96" height="96" viewBox="0 0 96 96" role="img" aria-label="first mushroom pawn">
  <title>first mushroom pawn</title>
  <defs>
    <filter id="softShadow" x="-20%" y="-20%" width="140%" height="150%">
      <feDropShadow dx="0" dy="3" stdDeviation="2" flood-color="#000" flood-opacity="0.28"/>
    </filter>
  </defs>
  <g filter="url(#softShadow)">
    <ellipse cx="48" cy="80" rx="27" ry="7" fill="#000" opacity="0.18"/>
    <path d="M34 76c0-17 4-29 14-29s14 12 14 29c-8 5-20 5-28 0z" fill="#ffe2b8" stroke="#5c1d18" stroke-width="3"/>
    <path d="M41 74c-1-10 0-18 3-24" fill="none" stroke="#ffd08a" stroke-width="4" stroke-linecap="round" opacity="0.9"/>
    <path d="M16 46c4-22 18-34 32-34s28 12 32 34c-11 10-53 10-64 0z" fill="#f45b57" stroke="#5c1d18" stroke-width="3" stroke-linejoin="round"/>
    <path d="M25 43c10-18 26-25 45-8" fill="none" stroke="#ff8a72" stroke-width="8" stroke-linecap="round" opacity="0.62"/>
    <circle cx="32" cy="34" r="5" fill="#fff6d7" opacity="0.95"/>
    <circle cx="48" cy="25" r="6" fill="#fff6d7" opacity="0.95"/>
    <circle cx="64" cy="36" r="4.5" fill="#fff6d7" opacity="0.95"/>
    <g transform="translate(0 8) scale(.82) translate(10 4)"><circle fill="#fff6d7" stroke="#7c2d24" stroke-width="3" stroke-linejoin="round" stroke-linecap="round" cx="48" cy="36" r="10"/><path fill="#fff6d7" stroke="#7c2d24" stroke-width="3" stroke-linejoin="round" stroke-linecap="round" d="M34 62c2-12 8-18 14-18s12 6 14 18z"/></g>
  </g>
</svg>
