<svg xmlns="http://www.w3.org/2000/svg" width="96" height="96" viewBox="0 0 96 96" role="img" aria-label="second space rook">
  <title>second space rook</title>
  <defs>
    <filter id="softShadow" x="-20%" y="-20%" width="140%" height="150%">
      <feDropShadow dx="0" dy="3" stdDeviation="2" flood-color="#000" flood-opacity="0.28"/>
    </filter>
  </defs>
  <g filter="url(#softShadow)">
    <ellipse cx="48" cy="80" rx="28" ry="7" fill="#000" opacity="0.16"/>
    <path d="M17 56c11-12 51-12 62 0-8 12-54 12-62 0z" fill="#f97316" stroke="#180c3d" stroke-width="3" stroke-linejoin="round"/>
    <circle cx="48" cy="46" r="25" fill="#7257ff" stroke="#180c3d" stroke-width="3"/>
    <path d="M31 35c10-12 27-12 37 0" fill="none" stroke="#c3b5ff" stroke-width="7" stroke-linecap="round" opacity="0.72"/>
    <circle cx="32" cy="23" r="4" fill="#f5d0fe"/>
    <circle cx="72" cy="28" r="3" fill="#f5d0fe" opacity="0.9"/>
    <path d="M72 15l2 5 5 2-5 2-2 5-2-5-5-2 5-2z" fill="#f97316"/>
    <path d="M17 56c12 6 50 6 62 0" fill="none" stroke="#21114f" stroke-width="3" opacity="0.55"/>
    <g transform="translate(0 4) scale(.74) translate(17 12)"><path fill="#f5d0fe" stroke="#180c3d" stroke-width="3" stroke-linejoin="round" stroke-linecap="round" d="M33 34h30v9h-5v11H38V43h-5z"/><path fill="#f5d0fe" stroke="#180c3d" stroke-width="3" stroke-linejoin="round" stroke-linecap="round" d="M34 25h7v8h5v-8h6v8h5v-8h7v12H34z"/></g>
  </g>
</svg>
