<svg xmlns="http://www.w3.org/2000/svg" width="96" height="96" viewBox="0 0 96 96" role="img" aria-label="first space knight">
  <title>first space knight</title>
  <defs>
    <filter id="softShadow" x="-20%" y="-20%" width="140%" height="150%">
      <feDropShadow dx="0" dy="3" stdDeviation="2" flood-color="#000" flood-opacity="0.28"/>
    </filter>
  </defs>
  <g filter="url(#softShadow)">
    <ellipse cx="48" cy="80" rx="28" ry="7" fill="#000" opacity="0.16"/>
    <path d="M17 56c11-12 51-12 62 0-8 12-54 12-62 0z" fill="#ffca3a" stroke="#0c252d" stroke-width="3" stroke-linejoin="round"/>
    <circle cx="48" cy="46" r="25" fill="#39c8d4" stroke="#0c252d" stroke-width="3"/>
    <path d="M31 35c10-12 27-12 37 0" fill="none" stroke="#a5f3fc" stroke-width="7" stroke-linecap="round" opacity="0.72"/>
    <circle cx="32" cy="23" r="4" fill="#ff6b6b"/>
    <circle cx="72" cy="28" r="3" fill="#ff6b6b" opacity="0.9"/>
    <path d="M72 15l2 5 5 2-5 2-2 5-2-5-5-2 5-2z" fill="#ffca3a"/>
    <path d="M17 56c12 6 50 6 62 0" fill="none" stroke="#12343b" stroke-width="3" opacity="0.55"/>
    <g transform="translate(0 4) scale(.74) translate(17 12)"><path fill="#ff6b6b" stroke="#0c252d" stroke-width="3" stroke-linejoin="round" stroke-linecap="round" d="M36 61c2-16 8-28 21-36 4 5 6 10 4 16l7 5-7 6h-9l-5 9z"/><circle fill="#0c252d" cx="55" cy="39" r="2.5"/></g>
  </g>
</svg>
