<svg xmlns="http://www.w3.org/2000/svg" width="96" height="96" viewBox="0 0 96 96" role="img" aria-label="second sushi pawn">
  <title>second sushi pawn</title>
  <defs>
    <filter id="softShadow" x="-20%" y="-20%" width="140%" height="150%">
      <feDropShadow dx="0" dy="3" stdDeviation="2" flood-color="#000" flood-opacity="0.28"/>
    </filter>
  </defs>
  <g filter="url(#softShadow)">
    <ellipse cx="48" cy="80" rx="30" ry="7" fill="#000" opacity="0.16"/>
    <rect x="18" y="34" width="60" height="41" rx="14" fill="#211f35" stroke="#171224" stroke-width="3"/>
    <rect x="23" y="29" width="50" height="35" rx="13" fill="#f3f0ff" stroke="#171224" stroke-width="3"/>
    <path d="M28 34c10-10 30-12 41 0v10c-13-7-27-7-41 0z" fill="#d83a65"/>
    <path d="M31 39c12-7 24-7 35 0" fill="none" stroke="#8b2dc8" stroke-width="5" stroke-linecap="round" opacity="0.85"/>
    <circle cx="34" cy="54" r="2" fill="#cfc7ff"/>
    <circle cx="44" cy="58" r="2" fill="#cfc7ff"/>
    <circle cx="58" cy="54" r="2" fill="#cfc7ff"/>
    <circle cx="65" cy="59" r="2" fill="#cfc7ff"/>
    <path d="M24 70h48" stroke="#ffd650" stroke-width="4" stroke-linecap="round" opacity="0.85"/>
    <g transform="translate(0 6) scale(.74) translate(17 11)"><circle fill="#ffd650" stroke="#171224" stroke-width="3" stroke-linejoin="round" stroke-linecap="round" cx="48" cy="36" r="10"/><path fill="#ffd650" stroke="#171224" stroke-width="3" stroke-linejoin="round" stroke-linecap="round" d="M34 62c2-12 8-18 14-18s12 6 14 18z"/></g>
  </g>
</svg>
