<svg xmlns="http://www.w3.org/2000/svg" width="96" height="96" viewBox="0 0 96 96" role="img" aria-label="first sushi bishop">
  <title>first sushi bishop</title>
  <defs>
    <filter id="softShadow" x="-20%" y="-20%" width="140%" height="150%">
      <feDropShadow dx="0" dy="3" stdDeviation="2" flood-color="#000" flood-opacity="0.28"/>
    </filter>
  </defs>
  <g filter="url(#softShadow)">
    <ellipse cx="48" cy="80" rx="30" ry="7" fill="#000" opacity="0.16"/>
    <rect x="18" y="34" width="60" height="41" rx="14" fill="#20302a" stroke="#1f1a16" stroke-width="3"/>
    <rect x="23" y="29" width="50" height="35" rx="13" fill="#fff8e8" stroke="#1f1a16" stroke-width="3"/>
    <path d="M28 34c10-10 30-12 41 0v10c-13-7-27-7-41 0z" fill="#ff8b73"/>
    <path d="M31 39c12-7 24-7 35 0" fill="none" stroke="#ffbd7a" stroke-width="5" stroke-linecap="round" opacity="0.85"/>
    <circle cx="34" cy="54" r="2" fill="#f6dfb6"/>
    <circle cx="44" cy="58" r="2" fill="#f6dfb6"/>
    <circle cx="58" cy="54" r="2" fill="#f6dfb6"/>
    <circle cx="65" cy="59" r="2" fill="#f6dfb6"/>
    <path d="M24 70h48" stroke="#79d27b" stroke-width="4" stroke-linecap="round" opacity="0.85"/>
    <g transform="translate(0 6) scale(.74) translate(17 11)"><path fill="#79d27b" stroke="#1f1a16" stroke-width="3" stroke-linejoin="round" stroke-linecap="round" d="M48 24c10 8 15 17 15 27 0 8-6 13-15 13s-15-5-15-13c0-10 5-19 15-27z"/><path d="M42 52l13-16" stroke="#1f1a16" stroke-width="4" stroke-linecap="round"/></g>
  </g>
</svg>
